<svg t="1712574136124" class="icon" viewBox="0 0 1024 1024" version="1.1" xmlns="http://www.w3.org/2000/svg" p-id="5726" width="256" height="256"><path d="M345.856 185.2672c65.664 41.0112 98.5088 61.5168 108.8768 88.7296 8.0896 21.248 8.0896 45.1584 0 66.432-10.368 27.1872-43.2128 47.6928-108.8768 88.704-64.768 40.448-97.1776 60.6976-123.7248 56.7808-20.736-3.0464-39.552-14.9504-52.2496-33.1264C153.6 429.5424 153.6 388.7616 153.6 307.2c0-81.5616 0-122.3424 16.2816-145.5872 12.6976-18.176 31.488-30.08 52.2496-33.1264 26.5472-3.9168 58.9312 16.3072 123.7248 56.7808z" p-id="5727" data-spm-anchor-id="a313x.search_index.0.i4.19093a81bfoK41" class="selected" fill="#ffffff"></path><path d="M128 537.6m102.4 0l153.6 0q102.4 0 102.4 102.4l0 153.6q0 102.4-102.4 102.4l-153.6 0q-102.4 0-102.4-102.4l0-153.6q0-102.4 102.4-102.4Z" p-id="5728" data-spm-anchor-id="a313x.search_index.0.i2.19093a81bfoK41" class="selected" fill="#ffffff"></path><path d="M537.6 128m102.4 0l153.6 0q102.4 0 102.4 102.4l0 153.6q0 102.4-102.4 102.4l-153.6 0q-102.4 0-102.4-102.4l0-153.6q0-102.4 102.4-102.4Z" p-id="5729" data-spm-anchor-id="a313x.search_index.0.i5.19093a81bfoK41" class="selected" fill="#ffffff"></path><path d="M537.6 537.6m102.4 0l153.6 0q102.4 0 102.4 102.4l0 153.6q0 102.4-102.4 102.4l-153.6 0q-102.4 0-102.4-102.4l0-153.6q0-102.4 102.4-102.4Z" p-id="5730" data-spm-anchor-id="a313x.search_index.0.i3.19093a81bfoK41" class="selected" fill="#ffffff"></path></svg>